<svg width="2000" height="1000" xmlns="http://www.w3.org/2000/svg"><defs><linearGradient id="a" gradientTransform="rotate(90)"><stop offset="5%" stop-color="#381d38"/><stop offset="95%" stop-color="#695569"/></linearGradient><linearGradient id="b" gradientTransform="rotate(90)"><stop offset="5%" stop-color="#3a273f"/><stop offset="95%" stop-color="#6b5d6f"/></linearGradient><linearGradient id="c" gradientTransform="rotate(90)"><stop offset="5%" stop-color="#3d3147"/><stop offset="95%" stop-color="#6d6475"/></linearGradient><linearGradient id="d" gradientTransform="rotate(90)"><stop offset="5%" stop-color="#403b4e"/><stop offset="95%" stop-color="#6f6c7a"/></linearGradient><linearGradient id="e" gradientTransform="rotate(90)"><stop offset="5%" stop-color="#444657"/><stop offset="95%" stop-color="#727481"/></linearGradient><linearGradient id="f" gradientTransform="rotate(90)"><stop offset="5%" stop-color="#4b5762"/><stop offset="95%" stop-color="#788189"/></linearGradient><linearGradient id="g" gradientTransform="rotate(90)"><stop offset="5%" stop-color="#52676e"/><stop offset="95%" stop-color="#7d8d92"/></linearGradient><linearGradient id="h" gradientTransform="rotate(90)"><stop offset="5%" stop-color="#597779"/><stop offset="95%" stop-color="#82999a"/></linearGradient><linearGradient id="i" gradientTransform="rotate(90)"><stop offset="5%" stop-color="#608884"/><stop offset="95%" stop-color="#87a5a2"/></linearGradient><linearGradient id="j" gradientTransform="rotate(90)"><stop offset="5%" stop-color="#72968d"/><stop offset="95%" stop-color="#95b0a9"/></linearGradient><linearGradient id="k" gradientTransform="rotate(90)"><stop offset="5%" stop-color="#8ea292"/><stop offset="95%" stop-color="#aab9ad"/></linearGradient><linearGradient id="l" gradientTransform="rotate(90)"><stop offset="5%" stop-color="#a9af98"/><stop offset="95%" stop-color="#bec3b1"/></linearGradient><linearGradient id="m" gradientTransform="rotate(90)"><stop offset="5%" stop-color="#c5bb9d"/><stop offset="95%" stop-color="#d3ccb5"/></linearGradient><linearGradient id="n" gradientTransform="rotate(90)"><stop offset="5%" stop-color="#e1c7a3"/><stop offset="95%" stop-color="#e8d5ba"/></linearGradient><linearGradient id="o" gradientTransform="rotate(90)"><stop offset="5%" stop-color="#e4b194"/><stop offset="95%" stop-color="#eac4ae"/></linearGradient><linearGradient id="p" gradientTransform="rotate(90)"><stop offset="5%" stop-color="#de8f80"/><stop offset="95%" stop-color="#e6ab9f"/></linearGradient><linearGradient id="q" gradientTransform="rotate(90)"><stop offset="5%" stop-color="#d86d6b"/><stop offset="95%" stop-color="#e19190"/></linearGradient><linearGradient id="r" gradientTransform="rotate(90)"><stop offset="5%" stop-color="#d24c56"/><stop offset="95%" stop-color="#dd7880"/></linearGradient><linearGradient id="s" gradientTransform="rotate(90)"><stop offset="5%" stop-color="#cc2a41"/><stop offset="95%" stop-color="#d85f70"/></linearGradient></defs><path fill="#351330" d="M0 0h2000v1000H0z"/><path d="M0 50c19.963-3.332 39.925-6.664 62-8 22.075-1.336 46.262-.677 67 0s38.028 1.371 61 1 51.626-1.809 75 3c23.374 4.809 41.468 15.863 64 13 22.532-2.863 49.503-19.644 74-23 24.497-3.356 46.52 6.714 69 11 22.48 4.286 45.417 2.788 68 0s44.812-6.866 66-5c21.188 1.866 41.335 9.678 63 9 21.665-.678 44.847-9.845 68-15 23.153-5.155 46.277-6.298 67 1s39.047 23.039 58 24c18.953.961 38.537-12.857 64-15 25.463-2.143 56.807 7.388 81 6 24.193-1.388 41.237-13.697 63-12 21.763 1.697 48.246 17.399 70 24 21.754 6.601 38.78 4.102 58-3s40.635-18.806 66-21c25.365-2.194 54.681 5.121 76 4 21.319-1.121 34.64-10.68 53-8 18.36 2.68 41.76 17.597 68 21 26.24 3.403 55.317-4.709 78-11s38.97-10.762 56-8c17.03 2.762 34.8 12.758 61 18 26.2 5.242 60.827 5.73 85 3 24.173-2.73 37.892-8.68 56-9 18.108-.32 40.606 4.99 62 2s41.684-14.283 65-16c23.316-1.717 49.658 6.142 116 14l-40 950H0Z" fill="url(#a)"/><path d="M0 100c20.69 3.789 41.378 7.578 62 5 20.622-2.578 41.176-11.523 63-14 21.824-2.477 44.916 1.512 71 2 26.084.488 55.158-2.527 76 0s33.45 10.594 56 13c22.55 2.406 55.039-.85 78-5s36.394-9.191 59-9c22.606.191 54.385 5.617 76 7 21.615 1.383 33.065-1.275 52-3 18.935-1.725 45.354-2.518 71 1s50.519 11.347 74 16c23.481 4.653 45.57 6.13 66 0s39.201-19.864 58-26c18.799-6.136 37.626-4.673 63-2 25.374 2.673 57.296 6.556 84 11s48.19 9.447 66 11c17.81 1.553 31.944-.346 53-1s49.035-.062 72 0c22.965.062 40.915-.406 60-5s39.305-13.316 64-14c24.695-.684 53.865 6.67 78 8 24.135 1.33 43.235-3.36 62 1 18.765 4.36 37.197 17.774 62 17 24.803-.774 55.979-15.736 77-15 21.021.736 31.888 17.17 55 15 23.112-2.17 58.47-22.943 84-24 25.53-1.057 41.235 17.603 59 17 17.765-.603 37.59-20.47 60-20 22.41.47 47.403 21.277 71 27 23.597 5.723 45.799-3.639 108-13l-40 900H0Z" fill="url(#b)"/><path d="M0 150c21.688-8.985 43.375-17.97 67-14 23.625 3.97 49.187 20.894 73 28 23.813 7.106 45.876 4.394 67-3 21.124-7.394 41.307-19.47 62-24 20.693-4.53 41.895-1.514 61 6 19.105 7.514 36.114 19.526 60 18 23.886-1.526 54.65-16.588 79-17 24.35-.412 42.284 13.827 65 20s50.212 4.279 75-4c24.788-8.279 46.868-22.943 65-22 18.132.943 32.315 17.494 52 23 19.685 5.506 44.872-.031 72-7s56.196-15.369 77-19c20.804-3.631 33.343-2.494 55 2 21.657 4.494 52.434 12.344 76 16 23.566 3.656 39.923 3.12 61-1 21.077-4.12 46.874-11.821 68-11 21.126.821 37.583 10.166 57 9 19.417-1.166 41.796-12.842 69-15 27.204-2.158 59.232 5.204 81 6 21.768.796 33.274-4.972 50 0s38.67 20.684 65 23c26.33 2.316 57.042-8.764 79-17s35.16-13.628 55-10c19.84 3.628 46.32 16.276 72 20s50.558-1.474 73-1 42.448 6.622 63 4 41.648-14.014 62-16c20.352-1.986 39.958 5.432 63 8 23.042 2.568 49.521.284 116-2l-40 850H0Z" fill="url(#c)"/><path d="M0 200c16.81-.782 33.618-1.565 56 0 22.382 1.565 50.336 5.476 74 4s43.039-8.34 66-7c22.961 1.34 49.51 10.882 73 12 23.49 1.118 43.924-6.19 63-10 19.076-3.81 36.795-4.122 60 0s51.898 12.678 79 15c27.102 2.322 52.615-1.59 70-1 17.385.59 26.642 5.681 49 0s57.816-22.135 83-22c25.184.135 40.095 16.857 57 18 16.905 1.143 35.805-13.294 60-18 24.195-4.706 53.686.317 78 4s43.452 6.025 67 11c23.548 4.975 51.505 12.582 74 8 22.495-4.582 39.529-21.353 59-22 19.471-.647 41.38 14.83 66 16 24.62 1.17 51.95-11.97 72-15 20.05-3.03 32.818 4.05 53 6 20.182 1.95 47.777-1.23 70 2s39.075 12.87 62 13c22.925.13 51.923-9.252 74-13 22.077-3.748 37.234-1.864 62-5s59.142-11.291 82-9c22.858 2.291 34.196 15.03 51 20 16.804 4.97 39.072 2.175 63 1 23.928-1.175 49.517-.727 72-2 22.483-1.273 41.86-4.266 64-9s47.04-11.21 71-11c23.96.21 46.98 7.105 110 14l-40 800H0Z" fill="url(#d)"/><path d="M0 250c21.093 1.394 42.187 2.788 62 6 19.813 3.212 38.347 8.243 61 7 22.653-1.243 49.425-8.761 76-14 26.575-5.239 52.954-8.198 76-10 23.046-1.802 42.759-2.448 63 2s41.011 13.989 64 16c22.989 2.011 48.197-3.507 68-5 19.803-1.493 34.201 1.04 54 3s44.999 3.35 69 3c24.001-.35 46.805-2.438 68-7 21.195-4.562 40.783-11.599 63-10 22.217 1.599 47.063 11.833 73 13 25.937 1.167 52.966-6.732 75-5 22.034 1.732 39.075 13.095 59 9 19.925-4.095 42.735-23.646 64-23 21.265.646 40.986 21.491 61 26 20.014 4.509 40.323-7.318 68-15s62.724-11.22 85-6c22.276 5.22 31.781 19.197 52 19 20.219-.197 51.15-14.568 74-21s37.616-4.924 58-3c20.384 1.924 46.386 4.265 71 10 24.614 5.735 47.84 14.864 72 19 24.16 4.136 49.25 3.277 71-1s40.156-11.973 63-18c22.844-6.027 50.127-10.386 71-7 20.873 3.386 35.337 14.516 55 20 19.663 5.484 44.525 5.323 68 2 23.475-3.323 45.564-9.806 68-12 22.436-2.194 45.218-.097 108 2l-40 750H0Z" fill="url(#e)"/><path d="M0 300c22.4-7.026 44.8-14.053 66-10 21.2 4.053 41.2 19.184 66 22 24.8 2.816 54.398-6.683 75-8 20.602-1.317 32.206 5.546 51 9 18.794 3.454 44.777 3.497 71 0s52.688-10.534 75-14c22.312-3.466 40.473-3.361 62-4 21.527-.639 46.419-2.022 67 0 20.581 2.022 36.85 7.45 60 5s53.177-12.774 78-13c24.823-.226 44.44 9.648 65 16 20.56 6.352 42.065 9.183 66 5 23.935-4.183 50.3-15.381 70-18 19.7-2.619 32.735 3.341 56 3 23.265-.341 56.76-6.984 79-5 22.24 1.984 33.222 12.594 55 18 21.778 5.406 54.352 5.606 77 4 22.648-1.606 35.369-5.02 54-7 18.631-1.98 43.173-2.53 69-3 25.827-.47 52.938-.864 75-4 22.062-3.136 39.073-9.013 60-10 20.927-.987 45.768 2.918 67 11s38.856 20.341 63 17c24.144-3.341 54.81-22.284 81-27 26.19-4.716 47.906 4.793 68 7s38.567-2.89 61 0 48.827 13.764 69 14c20.173.236 34.123-10.167 56-12 21.877-1.833 51.679 4.905 76 7 24.321 2.095 43.16-.452 102-3l-40 700H0Z" fill="url(#f)"/><path d="M0 350c27.35-6.548 54.701-13.096 75-9s33.545 18.837 56 21c22.455 2.163 54.118-8.25 77-14 22.882-5.75 36.981-6.836 55-8 18.019-1.164 39.958-2.405 66 3 26.042 5.405 56.189 17.456 79 18 22.811.544 38.287-10.42 61-13s52.663 3.22 73 5c20.337 1.78 31.062-.464 52-2s52.09-2.364 78 2c25.91 4.364 46.58 13.92 67 11s40.588-18.314 61-23 41.066 1.335 63 8c21.934 6.665 45.149 13.973 66 11 20.851-2.973 39.34-16.229 64-20 24.66-3.771 55.495 1.942 82 3 26.505 1.058 48.681-2.539 68 1 19.319 3.539 35.78 14.213 55 14 19.22-.213 41.2-11.312 62-12 20.8-.688 40.422 9.034 65 9 24.578-.034 54.113-9.823 77-11 22.887-1.177 39.128 6.258 62 6s52.376-8.21 77-8c24.624.21 44.368 8.58 66 9 21.632.42 45.152-7.108 68-11 22.848-3.892 45.026-4.148 65-3 19.974 1.148 37.746 3.7 60 9 22.254 5.3 48.992 13.35 71 14 22.008.65 39.288-6.1 60-9 20.712-2.9 44.856-1.95 109-1l-40 650H0Z" fill="url(#g)"/><path d="M0 400c20.182-4.74 40.364-9.48 65-13 24.636-3.52 53.727-5.822 78-2 24.273 3.822 43.729 13.766 61 18s32.358 2.757 57 4c24.642 1.243 58.838 5.205 81 3s32.291-10.579 49-13c16.709-2.421 39.998 1.11 67 6 27.002 4.89 57.716 11.141 80 9s36.14-12.675 59-16c22.86-3.325 54.727.558 77 5 22.273 4.442 34.951 9.444 53 8 18.049-1.444 41.468-9.336 69-10 27.532-.664 59.177 5.898 80 10s30.823 5.745 53 5c22.177-.745 56.532-3.878 79-5 22.468-1.122 33.05-.231 53-5 19.95-4.769 49.267-15.196 76-19 26.733-3.804 50.881-.985 71 0s36.209.135 55 3c18.791 2.865 40.284 9.444 66 12 25.716 2.556 55.656 1.087 78 3s37.091 7.206 55 10c17.909 2.794 38.979 3.087 63 0s50.993-9.556 73-10c22.007-.444 39.05 5.137 64 4 24.95-1.137 57.807-8.993 80-11 22.193-2.007 33.722 1.833 51 3s40.306-.34 66-4c25.694-3.66 54.056-9.474 78-9 23.944.474 43.472 7.237 103 14l-40 600H0Z" fill="url(#h)"/><path d="M0 450c19.93-2.232 39.861-4.465 63-4 23.139.465 49.486 3.627 70 3 20.514-.627 35.195-5.044 57-7 21.805-1.956 50.734-1.45 75-2s43.868-2.153 68-3c24.132-.847 52.794-.937 75-2 22.206-1.063 37.955-3.099 56 1s38.387 14.331 64 16c25.613 1.669 56.496-5.226 78-8 21.504-2.774 33.627-1.427 53 3 19.373 4.427 45.996 11.934 71 15 25.004 3.066 48.388 1.692 70-5 21.612-6.692 41.452-18.703 66-18 24.548.703 53.805 14.118 75 18 21.195 3.882 34.327-1.77 53-8 18.673-6.23 42.888-13.036 70-9 27.112 4.036 57.12 18.916 79 22 21.88 3.084 35.629-5.629 55-7 19.371-1.371 44.364 4.599 67 7 22.636 2.401 42.915 1.233 65 1 22.085-.233 45.975.47 70-1s48.185-5.112 72-5c23.815.112 47.286 3.978 70 5 22.714 1.022 44.671-.798 65-7s39.029-16.785 61-16c21.971.785 47.213 12.937 71 13 23.787.063 46.118-11.962 68-10 21.882 1.962 43.314 17.913 65 17 21.686-.913 43.624-18.69 65-23 21.376-4.31 42.188 4.845 103 14l-40 550H0Z" fill="url(#i)"/><path d="M0 500c22.472-6.455 44.944-12.91 67-15 22.056-2.09 43.696.182 64 3 20.304 2.818 39.273 6.181 63 10 23.727 3.819 52.212 8.093 73 7 20.788-1.093 33.879-7.552 58-10 24.121-2.448 59.272-.884 84 5s39.033 16.088 57 14c17.967-2.088 39.597-16.466 62-20 22.403-3.534 45.58 3.778 71 7s53.084 2.356 76 2c22.916-.356 41.085-.2 60 1s38.575 3.445 62 1c23.425-2.445 50.617-9.578 75-8 24.383 1.578 45.96 11.868 66 12 20.04.132 38.546-9.895 59-16s42.858-8.29 67-5c24.142 3.29 50.024 12.054 70 18s34.047 9.075 59 7c24.953-2.075 60.789-9.353 82-15s27.798-9.664 49-11c21.202-1.336 57.02.007 82 6 24.98 5.993 39.12 16.635 59 18 19.88 1.365 45.503-6.547 70-10 24.497-3.453 47.87-2.447 71-3 23.13-.553 46.019-2.663 67-2 20.981.663 40.056 4.1 62 4 21.944-.1 46.758-3.738 66-3 19.242.738 32.911 5.853 57 7 24.089 1.147 58.597-1.672 84-3s41.702-1.164 98-1l-40 500H0Z" fill="url(#j)"/><path d="M0 550c25.557-4.433 51.114-8.865 74-11 22.886-2.135 43.1-1.972 61 4 17.9 5.972 33.484 17.752 56 19 22.516 1.248 51.964-8.037 77-10 25.036-1.963 45.66 3.396 66 3 20.34-.396 40.396-6.548 63-10s47.754-4.203 73-4c25.246.203 50.586 1.361 70 4 19.414 2.639 32.9 6.76 52 8 19.1 1.24 43.812-.397 67 1 23.188 1.397 44.853 5.83 70 1s53.775-18.924 78-17c24.225 1.924 44.046 19.867 64 21 19.954 1.133 40.04-14.542 61-20s42.793-.697 64 6 41.788 15.33 63 12c21.212-3.33 43.055-18.624 64-22 20.945-3.376 40.99 5.166 67 13 26.01 7.834 57.982 14.961 82 10s40.08-22.011 59-23c18.92-.989 40.697 14.083 66 18 25.303 3.917 54.133-3.322 78-9 23.867-5.678 42.77-9.796 63-4 20.23 5.796 41.783 21.505 63 21 21.217-.505 42.096-17.226 65-20 22.904-2.774 47.833 8.398 72 13s47.57 2.636 69 3c21.43.364 40.885 3.06 63 2 22.115-1.06 46.89-5.874 69-8 22.11-2.126 41.555-1.563 101-1l-40 450H0Z" fill="url(#k)"/><path d="M0 600c22.552.159 45.104.317 65 0s37.136-1.11 60-3c22.864-1.89 51.352-4.874 74-6 22.648-1.126 39.457-.394 62 2s50.82 6.45 72 9 35.261 3.593 58-1c22.739-4.593 54.135-14.824 80-15 25.865-.176 46.198 9.702 66 13s39.075.015 63 2c23.925 1.985 52.504 9.239 73 9 20.496-.239 32.91-7.97 54-12 21.09-4.03 50.858-4.357 74-5 23.142-.643 39.657-1.601 60 1 20.343 2.601 44.514 8.763 66 11 21.486 2.237 40.287.551 65-6s55.338-17.967 81-14c25.662 3.967 46.36 23.317 68 27s44.224-8.3 67-13c22.776-4.7 45.743-2.117 67-4 21.257-1.883 40.804-8.232 61-5 20.196 3.232 41.04 16.044 61 21 19.96 4.956 39.034 2.055 59-2s40.823-9.266 68-8 60.673 9.007 84 9c23.327-.007 36.484-7.762 55-8 18.516-.238 42.39 7.041 64 6 21.61-1.041 40.957-10.403 64-14 23.043-3.597 49.78-1.43 73 4s42.92 14.123 65 15c22.08.877 46.54-6.061 111-13l-40 400H0Z" fill="url(#l)"/><path d="M0 650c18.04-2.403 36.08-4.806 60-7s53.72-4.178 76-3 37.042 5.52 59 8c21.958 2.48 51.112 3.1 74 0 22.888-3.1 39.508-9.922 59-12 19.492-2.078 41.855.588 66 4 24.145 3.412 50.071 7.57 74 11 23.929 3.43 45.86 6.13 67 5s41.487-6.088 65-5c23.513 1.088 50.193 8.223 73 10 22.807 1.777 41.74-1.804 61-7 19.26-5.196 38.845-12.008 63-14 24.155-1.992 52.881.835 74 4s34.63 6.668 58 5c23.37-1.668 56.598-8.506 79-9 22.402-.494 33.98 5.356 53 10 19.02 4.644 45.485 8.08 72 5s53.081-12.677 76-11c22.919 1.677 42.19 14.63 61 18 18.81 3.37 37.156-2.84 61-11s53.184-18.27 78-16c24.816 2.27 45.108 16.921 64 22 18.892 5.079 36.385.586 57 1 20.615.414 44.353 5.733 70 3 25.647-2.733 53.204-13.52 75-18s37.832-2.656 58 1 44.468 9.145 68 14c23.532 4.855 46.297 9.076 67 4 20.703-5.076 39.344-19.45 61-23 21.656-3.55 46.328 3.725 111 11l-40 350H0Z" fill="url(#m)"/><path d="M0 700c22.994 3.308 45.988 6.616 67 4 21.012-2.616 40.04-11.157 62-9s46.849 15.01 70 19c23.151 3.99 44.564-.884 68-3s48.894-1.474 73-4 46.861-8.22 66-9c19.139-.78 34.662 3.351 57 5s51.49.815 77-4c25.51-4.815 47.378-13.61 66-12 18.622 1.61 33.999 13.626 54 15 20.001 1.374 44.626-7.893 68-12 23.374-4.107 45.495-3.053 67 1 21.505 4.053 42.393 11.106 63 11 20.607-.106 40.933-7.372 66-10s54.874-.618 79-2c24.126-1.382 42.57-6.155 66-5 23.43 1.155 51.848 8.237 72 15s32.04 13.206 52 9c19.96-4.206 47.99-19.062 70-20 22.01-.938 37.996 12.041 60 18 22.004 5.959 50.024 4.897 76-1s49.907-16.628 73-14c23.093 2.628 45.348 18.617 69 20 23.652 1.383 48.702-11.84 67-18 18.298-6.16 29.843-5.257 52 1s54.926 17.867 77 14c22.074-3.867 33.453-23.212 54-24 20.547-.788 50.263 16.98 77 25 26.737 8.02 50.496 6.291 72 3 21.504-3.291 40.752-8.146 100-13l-40 300H0Z" fill="url(#n)"/><path d="M0 750c24.077-4.756 48.154-9.512 72-9 23.846.512 47.46 6.29 70 11s44.006 8.35 65 8c20.994-.35 41.516-4.69 63-10s43.931-11.588 66-14c22.069-2.412 43.759-.956 67 3s48.034 10.414 68 12c19.966 1.586 35.106-1.7 58 2s53.543 14.384 77 11c23.457-3.384 39.722-20.838 60-29 20.278-8.162 44.57-7.034 69 0s49 19.974 68 24 32.429-.861 56-6c23.571-5.139 57.284-10.529 80-13s34.437-2.024 54 3c19.563 5.024 46.97 14.623 72 17 25.03 2.377 47.684-2.47 72-1 24.316 1.47 50.294 9.254 70 3 19.706-6.254 33.14-26.546 56-26 22.86.546 55.145 21.93 78 23 22.855 1.07 36.278-18.173 56-20 19.722-1.827 45.742 13.763 71 17 25.258 3.237 49.753-5.878 70-5 20.247.878 36.246 11.748 58 11 21.754-.748 49.262-13.115 73-17s43.706.713 64 1c20.294.287 40.914-3.738 63-3s45.639 6.237 71 11c25.361 4.763 52.532 8.79 75 8 22.468-.79 40.234-6.395 98-12l-40 250H0Z" fill="url(#o)"/><path d="M0 800c25.042-10.19 50.084-20.381 70-15 19.916 5.381 34.704 26.334 54 28 19.296 1.666 43.098-15.954 66-21 22.902-5.046 44.902 2.482 69 2 24.098-.482 50.292-8.973 73-6 22.708 2.973 41.929 17.41 64 24 22.071 6.59 46.992 5.33 69-1 22.008-6.33 41.104-17.733 63-16 21.896 1.733 46.593 16.602 72 17 25.407.398 51.523-13.674 74-14 22.477-.326 41.314 13.092 61 11 19.686-2.092 40.222-19.696 60-20 19.778-.304 38.797 16.692 64 17 25.203.308 56.59-16.073 78-16 21.41.073 32.843 16.598 53 21 20.157 4.402 49.038-3.319 75-6 25.962-2.681 49.005-.322 73 1 23.995 1.322 48.942 1.607 71-4s41.228-17.108 60-14c18.772 3.108 37.146 20.824 57 24 19.854 3.176 41.189-8.188 64-11 22.811-2.812 47.099 2.927 69 3 21.901.073 41.416-5.52 67-6 25.584-.48 57.238 4.152 82 4 24.762-.152 42.634-5.089 63-10s43.228-9.797 66-6c22.772 3.797 45.454 16.275 66 16 20.546-.275 38.955-13.305 60-15 21.045-1.695 44.727 7.944 68 12 23.273 4.056 46.136 2.528 109 1l-40 200H0Z" fill="url(#p)"/><path d="M0 850c18.633 6.304 37.265 12.608 63 8 25.735-4.608 58.572-20.13 80-19 21.428 1.13 31.447 18.91 51 21s48.64-11.509 70-17 34.992-2.874 60 1c25.008 3.874 61.391 9.007 84 13 22.609 3.993 31.443 6.848 52 4s52.837-11.4 80-13c27.163-1.6 49.208 3.75 67 5s31.33-1.604 53-7 51.47-13.337 77-11c25.53 2.337 46.792 14.95 70 20 23.208 5.05 48.362 2.534 68 2 19.638-.534 33.76.913 54-2 20.24-2.913 46.6-10.188 72-12 25.4-1.812 49.837 1.838 70 3 20.163 1.162 36.05-.163 58-2 21.95-1.837 49.962-4.185 76-1 26.038 3.185 50.1 11.904 71 13s38.636-5.431 57-11c18.364-5.569 37.355-10.178 61-9 23.645 1.178 51.942 8.145 77 8 25.058-.145 46.875-7.4 69-4 22.125 3.4 44.558 17.455 66 23 21.442 5.545 41.893 2.579 62-5 20.107-7.579 39.868-19.771 61-18 21.132 1.771 43.633 17.506 70 16 26.367-1.506 56.599-20.252 77-20 20.401.252 30.972 19.5 50 25s46.514-2.75 114-11l-40 150H0Z" fill="url(#q)"/><path d="M0 900c23.66 8.465 47.32 16.93 67 14 19.68-2.93 35.383-17.258 59-18 23.617-.742 55.15 12.101 77 17 21.85 4.899 34.02 1.853 58-5 23.98-6.853 59.77-17.514 81-17 21.23.514 27.903 12.201 48 11 20.097-1.201 53.62-15.292 77-16 23.38-.708 36.617 11.966 59 17 22.383 5.034 53.913 2.428 77 3 23.087.572 37.732 4.321 61 1 23.268-3.321 55.158-13.713 77-12 21.842 1.713 33.638 15.532 54 14 20.362-1.532 49.292-18.413 73-23s42.193 3.12 64 8c21.807 4.88 46.935 6.932 72 7 25.065.068 50.065-1.848 70 0 19.935 1.848 34.803 7.46 54 10 19.197 2.54 42.724 2.01 68-2 25.276-4.01 52.302-11.497 75-11 22.698.497 41.067 8.978 59 13s35.431 3.586 60 2c24.569-1.586 56.208-4.32 79-8 22.792-3.68 36.736-8.306 59-9 22.264-.694 52.848 2.543 76 8s38.873 13.132 58 8c19.127-5.132 41.661-23.071 63-22 21.339 1.071 41.483 21.153 66 20 24.517-1.153 53.409-23.541 75-24 21.591-.459 35.883 21.012 57 27 21.117 5.988 49.058-3.506 117-13l-40 100H0Z" fill="url(#r)"/><path d="M0 950c22.983-.003 45.966-.005 68-3s43.118-8.982 65-10c21.882-1.018 44.562 2.934 65 4 20.438 1.066 38.636-.754 62 1 23.364 1.754 51.895 7.082 76 9 24.105 1.918 43.783.427 64 2s40.97 6.21 61 7 39.333-2.267 65-7c25.667-4.733 57.698-11.142 82-10 24.302 1.142 40.877 9.835 59 14 18.123 4.165 37.794 3.802 62 2 24.206-1.802 52.946-5.043 78-5 25.054.043 46.42 3.37 65 5s34.372 1.565 56-1 49.09-7.628 76-6c26.91 1.628 53.265 9.95 71 7 17.735-2.95 26.85-17.168 49-19 22.15-1.832 57.338 8.724 80 15s32.8 8.272 55 4c22.2-4.272 56.46-14.813 81-15 24.54-.187 39.357 9.98 62 14s53.111 1.894 73 0c19.889-1.894 29.199-3.557 49-4 19.801-.443 50.094.334 77-3s50.424-10.779 70-14 35.21-2.22 55-1c19.79 1.22 43.738 2.657 66 4s42.84 2.592 67 7c24.16 4.408 51.903 11.974 76 13 24.097 1.026 44.549-4.487 105-10l-40 50H0Z" fill="url(#s)"/></svg>